HIERARCHY
ROOT Hips
{
  OFFSET 2.26061 22.2878 23.7974
  CHANNELS 6 Xposition Yposition Zposition Zrotation Xrotation Yrotation
  JOINT LeftUpLeg
  {
    OFFSET 8.64259 1.95398 -2.38835
    CHANNELS 3 Zrotation Xrotation Yrotation
    JOINT LeftLeg
    {
      OFFSET 43.7702 0 0
      CHANNELS 3 Zrotation Xrotation Yrotation
      JOINT LeftFoot
      {
        OFFSET 40.6238 0 0
        CHANNELS 3 Zrotation Xrotation Yrotation
        JOINT LeftToeBase
        {
          OFFSET 12.7242 0 0
          CHANNELS 3 Zrotation Xrotation Yrotation
          End Site
          {
            OFFSET 0 0 0
          }
        }
      }
    }
  }
  JOINT RightUpLeg
  {
    OFFSET -8.2249 1.95398 -2.59336
    CHANNELS 3 Zrotation Xrotation Yrotation
    JOINT RightLeg
    {
      OFFSET 43.5653 0 0
      CHANNELS 3 Zrotation Xrotation Yrotation
      JOINT RightFoot
      {
        OFFSET 40.6238 0 0
        CHANNELS 3 Zrotation Xrotation Yrotation
        JOINT RightToeBase
        {
          OFFSET 12.7242 0 0
          CHANNELS 3 Zrotation Xrotation Yrotation
          End Site
          {
            OFFSET 0 0 0
          }
        }
      }
    }
  }
  JOINT Spine
  {
    OFFSET 0.165834 0.87714 6.61349
    CHANNELS 3 Zrotation Xrotation Yrotation
    JOINT Spine1
    {
      OFFSET 7.38963 1.71661e-005 0
      CHANNELS 3 Zrotation Xrotation Yrotation
      JOINT Spine2
      {
        OFFSET 11.9445 1.14441e-005 0
        CHANNELS 3 Zrotation Xrotation Yrotation
        JOINT Spine3
        {
          OFFSET 14.7254 4.19617e-005 0
          CHANNELS 3 Zrotation Xrotation Yrotation
          JOINT Spine4
          {
            OFFSET 10.9679 0 0
            CHANNELS 3 Zrotation Xrotation Yrotation
            JOINT RightShoulder
            {
              OFFSET 2.46616 -1.6653 3.69651
              CHANNELS 3 Zrotation Xrotation Yrotation
              JOINT RightArm
              {
                OFFSET 13.0012 0 0
                CHANNELS 3 Zrotation Xrotation Yrotation
                JOINT RightForeArm
                {
                  OFFSET 28.7848 1.52588e-005 0
                  CHANNELS 3 Zrotation Xrotation Yrotation
                  JOINT RightHand
                  {
                    OFFSET 26.5688 1.52588e-005 0
                    CHANNELS 3 Zrotation Xrotation Yrotation
                    End Site
                    {
                      OFFSET 0 0 0
                    }
                  }
                }
              }
            }
            JOINT LeftShoulder
            {
              OFFSET 2.38034 -1.29275 -3.7523
              CHANNELS 3 Zrotation Xrotation Yrotation
              JOINT LeftArm
              {
                OFFSET 16.3182 6.10351e-005 0
                CHANNELS 3 Zrotation Xrotation Yrotation
                JOINT LeftForeArm
                {
                  OFFSET 27.0901 0 0
                  CHANNELS 3 Zrotation Xrotation Yrotation
                  JOINT LeftHand
                  {
                    OFFSET 24.5451 1.52588e-005 0
                    CHANNELS 3 Zrotation Xrotation Yrotation
                    End Site
                    {
                      OFFSET 0 0 0
                    }
                  }
                }
              }
            }
            JOINT Neck
            {
              OFFSET 5.0226 -0.0266342 0
              CHANNELS 3 Zrotation Xrotation Yrotation
              JOINT Head
              {
                OFFSET 6.69363 2.86102e-005 0
                CHANNELS 3 Zrotation Xrotation Yrotation
                End Site
                {
                  OFFSET 0 0 0
                }
              }
            }
          }
        }
      }
    }
  }
}
MOTION
Frames:	7
Frame Time:	0.0416667
-17.7957 97.1416 -138.619 -62.0641 -82.9799 -62.6328 -172.913 7.7465 88.8837 -14.9332 8.5826 -0.229931 66.7412 6.54506 3.86357 30.1628 0.823119 3.23567 175.641 7.39414 91.8338 -15.8963 -6.16942 -2.67366 69.2048 -4.29641 -2.25185 29.0553 0.135418 -1.9612 -0.340205 6.91774 -90.1911 13.0376 -0.767187 -0.28816 1.36684 -0.779122 -0.25411 -21.1694 -0.645118 -0.505415 -1.15679 -0.645114 -0.505404 92.84 -55.2978 -95.5525 20.6117 -8.30058 2.49516 -7.03198 -27.3492 -42.0109 -4.45315 -0.667056 2.4757 -102.598 -54.4214 61.9868 -16.4679 15.221 -1.54034 0.883741 10.3809 -31.1071 10.8904 1.23032 6.95458 9.08784 3.09338 3.56806 3.65007 2.39592 0.706732 
-17.7342 97.287 -138.62 -64.8555 -82.7161 -65.117 -172.026 6.94768 89.6313 -13.8636 8.84143 -0.848916 66.8359 5.78528 2.10707 30.2753 0.815182 4.44785 175.889 6.55778 92.1363 -14.5286 -6.20707 -2.7502 68.6056 -4.30436 -2.29455 28.8243 0.0994596 -1.51342 -0.235284 6.87319 -90.1729 13.1269 -0.550202 -0.277814 1.45605 -0.561902 -0.253335 -21.0795 -0.441273 -0.430328 -1.06689 -0.441282 -0.43034 93.5389 -56.3581 -94.3808 19.8279 -7.81493 1.78638 -5.0213 -28.4906 -39.278 -5.42832 -0.78611 3.93309 -102.909 -53.9472 61.3805 -16.3286 15.5799 -1.98911 0.21144 11.6118 -28.5574 11.4409 1.22746 6.47692 8.7815 2.58611 3.0932 2.80473 1.99629 0.739096 
-17.7037 97.3663 -138.693 -64.4514 -83.1775 -64.9304 -172.111 6.46403 89.4549 -13.0084 9.33588 -0.885424 66.1642 4.97936 2.23747 30.2568 0.842014 3.94977 175.688 6.23005 91.9232 -14.0195 -5.56801 -2.65011 68.374 -4.25394 -2.27533 28.8208 0.0562666 -0.853761 -0.274979 6.84893 -90.0856 13.1759 -0.586901 -0.0982603 1.50512 -0.590658 -0.0723395 -21.0309 -0.530243 -0.270113 -1.01826 -0.530239 -0.27011 93.5041 -56.3318 -94.4347 21.0211 -7.0737 2.81916 -5.61948 -27.2074 -39.9714 -5.19728 -0.990705 8.14819 -101.916 -53.1644 62.4602 -16.8249 15.3348 -2.43139 0.248798 12.6648 -26.9034 10.6909 1.09197 5.92509 8.57489 2.48645 2.05002 2.77014 2.1263 1.19631 
-17.6606 97.3542 -139.033 -63.9429 -83.6052 -64.4778 -172.39 6.81931 89.2439 -13.438 9.55615 -0.693484 65.9426 4.99352 2.66397 30.346 0.971119 3.29791 175.701 6.36337 91.9092 -14.1071 -4.90526 -2.64028 68.3822 -4.27555 -2.28587 28.883 0.0348734 -0.465522 -0.272296 6.85326 -90.0396 13.1674 -0.559403 -0.00975756 1.49658 -0.559296 0.014866 -21.0395 -0.530612 -0.177436 -1.02682 -0.530614 -0.17744 93.1923 -55.5588 -95.0012 22.6205 -6.44826 3.00433 -4.50272 -26.3037 -37.6872 -6.35111 -1.09989 8.47183 -101.914 -52.7029 62.2901 -17.082 14.6695 -2.27238 0.6799 13.1925 -26.3593 9.77104 0.988884 5.75299 9.052 2.26807 1.87639 2.46093 1.92732 1.09884 
-17.6795 97.3316 -139.584 -71.1933 -83.9145 -72.0998 -172.28 6.32893 89.0663 -13.5274 9.59047 -0.903923 65.7801 4.89285 2.42987 30.0969 0.773385 3.17391 175.554 6.4674 91.5588 -15.3259 -5.07457 -2.78511 68.863 -4.35968 -2.30663 28.172 -0.0010248 -0.422297 -0.232078 6.94804 -89.9678 12.9781 -0.445258 0.118547 1.30726 -0.439616 0.138026 -21.2285 -0.460306 -0.0207517 -1.21586 -0.460309 -0.0207618 92.8293 -54.7012 -95.6655 24.2987 -6.02493 4.05876 -4.95591 -24.5914 -38.0236 -6.72664 -1.10902 8.29456 -102.361 -52.9951 61.7771 -16.5212 14.6528 -1.89896 0.310156 12.2486 -26.4277 10.1072 0.991217 5.49947 9.77923 2.00965 2.20456 2.01062 1.56772 0.638355 
-17.6094 97.384 -139.979 -76.2111 -83.8141 -77.1619 -172.238 5.99016 89.0308 -13.4427 9.3848 -0.902978 65.5632 4.6773 2.27425 29.9655 0.721137 2.51511 175.558 6.1758 91.4948 -15.1642 -5.32262 -2.89296 68.4355 -4.22665 -2.24795 28.6407 0.0270503 -0.518247 -0.162552 6.99704 -89.9149 12.88 -0.281905 0.20409 1.20908 -0.272641 0.216291 -21.3263 -0.330211 0.109933 -1.31361 -0.330207 0.109925 92.5614 -54.5808 -96.0757 24.7098 -6.38727 4.49448 -4.35531 -23.8226 -38.1715 -6.66514 -1.03168 7.38644 -102.696 -53.4396 61.4812 -15.3721 14.5697 -1.39121 0.52807 12.3149 -26.9437 9.1178 0.874986 5.2066 10.1072 1.71717 2.67428 2.0078 1.13788 -0.163947 
-17.568 97.3775 -140.237 -77.0891 -83.4583 -77.9183 -172.188 6.23808 89.1182 -13.6894 9.2538 -0.932771 65.6296 4.81384 2.3111 30.0444 0.780811 2.57891 175.583 6.2965 91.5828 -15.0195 -5.40623 -2.82856 68.3274 -4.17991 -2.22871 28.6083 0.00409383 -0.190016 -0.0747135 7.01676 -89.8916 12.8404 -0.0964224 0.228226 1.16945 -0.0862825 0.232245 -21.3656 -0.160556 0.188693 -1.35297 -0.160558 0.188694 92.6948 -54.6579 -95.8689 24.6001 -6.83306 4.42639 -3.23697 -22.873 -38.0351 -5.79863 -0.88281 6.35287 -103.019 -54.0375 61.263 -14.0659 14.7016 -1.25578 0.312581 11.8565 -27.385 9.17859 0.864817 5.05557 10.4663 1.56533 2.88155 2.07749 0.91487 -0.608959 
